<svg xmlns="http://www.w3.org/2000/svg" xmlns:xlink="http://www.w3.org/1999/xlink" width="2231" height="604" viewBox="0 0 2231 604">
  <g fill="none" transform="translate(-1)">
    <g transform="translate(702.68 80.7)">
      <path fill="#48bb78" d="M184.92224,122.5664 C191.2784,122.5664 194.98616,126.27416 194.98616,132.63032 L194.98616,191.95448 C194.98616,198.31064 191.2784,202.0184 184.92224,202.0184 L142.01816,202.0184 C139.36976,202.0184 137.78072,203.60744 137.78072,206.25584 L137.78072,387.93608 C137.78072,394.29224 134.07296,398 127.7168,398 L48.2648,398 C41.90864,398 38.20088,394.29224 38.20088,387.93608 L38.20088,206.25584 C38.20088,203.60744 36.61184,202.0184 33.96344,202.0184 L10.65752,202.0184 C4.30136,202.0184 0.5936,198.31064 0.5936,191.95448 L0.5936,132.63032 C0.5936,126.27416 4.30136,122.5664 10.65752,122.5664 L33.96344,122.5664 C36.61184,122.5664 38.20088,120.97736 38.20088,118.32896 L38.20088,103.49792 C38.20088,44.17376 71.57072,22.98656 157.37888,27.224 L177.50672,27.224 C183.86288,27.224 187.57064,30.93176 187.57064,37.28792 L187.57064,83.37008 C187.57064,89.72624 183.86288,93.434 177.50672,93.434 L157.37888,93.434 C143.07752,95.02304 137.78072,100.31984 137.78072,112.50248 L137.78072,118.32896 C137.78072,120.97736 139.36976,122.5664 142.01816,122.5664 L184.92224,122.5664 Z M342.77072,402.23744 C274.97168,402.23744 226.7708,362.51144 211.93976,302.12792 C208.232,288.88592 206.64296,274.58456 206.64296,259.75352 C206.64296,242.80376 208.76168,226.91336 212.99912,212.612 C229.4192,154.87688 277.0904,118.32896 343.3004,118.32896 C410.04008,118.32896 456.12224,155.40656 472.54232,211.55264 C476.77976,226.38368 478.89848,241.7444 478.89848,258.69416 C478.89848,272.99552 477.30944,286.23752 474.66104,298.94984 C460.35968,361.45208 412.1588,402.23744 342.77072,402.23744 Z M342.77072,316.95896 C361.8392,316.95896 372.4328,302.6576 376.67024,283.05944 C378.25928,275.64392 378.78896,267.69872 378.78896,259.22384 C378.78896,250.21928 377.7296,242.27408 376.14056,234.85856 C371.37344,215.79008 360.77984,203.60744 342.77072,203.60744 C323.70224,203.60744 313.63832,216.31976 309.40088,234.85856 C307.28216,242.27408 306.75248,250.74896 306.75248,259.22384 C306.75248,267.69872 307.28216,275.64392 308.8712,283.05944 C313.63832,303.18728 324.23192,316.95896 342.77072,316.95896 Z M662.69744,118.85864 C674.88008,118.85864 683.88464,121.50704 689.71112,124.68512 C694.47824,127.33352 696.06728,131.57096 695.00792,137.39744 L682.2956,215.2604 C681.23624,221.61656 677.52848,223.73528 670.64264,222.14624 C663.22712,220.5572 652.10384,220.02752 640.98056,222.14624 C625.61984,225.32432 607.61072,235.38824 607.61072,257.10512 L607.61072,387.93608 C607.61072,394.29224 603.90296,398 597.5468,398 L518.0948,398 C511.73864,398 508.03088,394.29224 508.03088,387.93608 L508.03088,132.63032 C508.03088,126.27416 511.73864,122.5664 518.0948,122.5664 L597.5468,122.5664 C603.90296,122.5664 607.61072,126.27416 607.61072,132.63032 L607.61072,140.04584 C607.61072,143.7536 609.72944,145.34264 611.84816,142.69424 C624.0308,127.8632 640.45088,118.85864 662.69744,118.85864 Z M1043.53736,118.32896 C1099.15376,118.32896 1131.99392,154.3472 1131.99392,217.37912 L1131.99392,387.93608 C1131.99392,394.29224 1128.28616,398 1121.93,398 L1042.478,398 C1036.12184,398 1032.41408,394.29224 1032.41408,387.93608 L1032.41408,239.096 C1032.41408,217.9088 1021.2908,203.60744 1004.87072,203.60744 C987.92096,203.60744 976.268,217.9088 976.268,239.096 L976.268,387.93608 C976.268,394.29224 972.56024,398 966.20408,398 L886.75208,398 C880.39592,398 876.68816,394.29224 876.68816,387.93608 L876.68816,239.096 C876.68816,217.9088 864.50552,203.60744 847.02608,203.60744 C832.19504,203.60744 821.07176,213.67136 817.89368,229.03208 C817.364,231.1508 817.364,232.73984 817.364,234.32888 L817.364,387.93608 C817.364,394.29224 813.65624,398 807.30008,398 L727.84808,398 C721.49192,398 717.78416,394.29224 717.78416,387.93608 L717.78416,132.63032 C717.78416,126.27416 721.49192,122.5664 727.84808,122.5664 L807.30008,122.5664 C813.65624,122.5664 817.364,126.27416 817.364,132.63032 L817.364,153.28784 C817.364,157.52528 820.0124,158.05496 822.13112,154.3472 C835.37312,130.5116 857.09,118.32896 888.34112,118.32896 C923.82968,118.32896 951.37304,134.74904 965.6744,164.41112 C967.26344,167.5892 969.38216,167.5892 970.9712,163.88144 C985.27256,132.10064 1011.22688,118.32896 1043.53736,118.32896 Z M1219.39112,111.44312 C1185.4916,111.44312 1162.18568,89.19656 1162.18568,55.82672 C1162.18568,22.45688 1185.4916,0.21032 1219.39112,0.21032 C1253.82032,0.21032 1276.59656,22.45688 1276.59656,55.82672 C1276.59656,89.19656 1253.82032,111.44312 1219.39112,111.44312 Z M1179.66512,398 C1173.30896,398 1169.6012,394.29224 1169.6012,387.93608 L1169.6012,132.63032 C1169.6012,126.27416 1173.30896,122.5664 1179.66512,122.5664 L1259.11712,122.5664 C1265.47328,122.5664 1269.18104,126.27416 1269.18104,132.63032 L1269.18104,387.93608 C1269.18104,394.29224 1265.47328,398 1259.11712,398 L1179.66512,398 Z M1310.49608,398 C1304.13992,398 1300.43216,394.29224 1300.43216,387.93608 L1300.43216,315.36992 C1300.43216,310.6028 1302.0212,306.89504 1305.72896,303.18728 L1400.54168,217.9088 C1403.19008,215.2604 1402.13072,212.612 1398.42296,212.612 L1314.20384,212.612 C1307.84768,212.612 1304.13992,208.90424 1304.13992,202.54808 L1304.13992,132.63032 C1304.13992,126.27416 1307.84768,122.5664 1314.20384,122.5664 L1514.42288,122.5664 C1520.77904,122.5664 1524.4868,126.27416 1524.4868,132.63032 L1524.4868,205.19648 C1524.4868,210.49328 1522.89776,213.67136 1518.66032,217.37912 L1419.61016,302.6576 C1416.96176,305.306 1418.02112,307.9544 1421.72888,307.9544 L1518.66032,307.9544 C1525.01648,307.9544 1528.72424,311.66216 1528.72424,318.01832 L1528.72424,387.93608 C1528.72424,394.29224 1525.01648,398 1518.66032,398 L1310.49608,398 Z"/>
    </g>

    <path fill="#48bb78" opacity="0.5" d="M28.87 362.19C19.77 368.93 12.25 376.51 7.14 385.04 3.93554117 390.416918 5.28814091 397.343607 10.28 401.12 17.36 406.53 26.15 411.24 36.04 415.31 38.183356 416.197506 40.6376349 415.87153 42.4750107 414.455305 44.3123866 413.039081 45.2525204 410.748689 44.94 408.45L39.11 366.51C38.7954015 364.252899 37.3165538 362.327756 35.2168383 361.441939 33.1171227 360.556121 30.7062269 360.840278 28.87 362.19zM253.75 360.69C247.6 327.23 211 305.92 172 313.09 147.51 317.6 94.65 327.34 53.91 347.25 51.4252629 348.489306 50.014607 351.181644 50.41 353.93L59.47 419.17C59.8180836 421.750707 61.6838717 423.868949 64.2 424.54 74.3 427.18 84.87 429.34 95.49 431.07 97.5225884 431.402667 99.5921279 430.747714 101.063242 429.30622 102.534356 427.864725 103.231262 425.808933 102.94 423.77L92.43 350.16C92.1874262 348.465074 92.6287196 346.743248 93.6566376 345.373942 94.6845555 344.004635 96.2147391 343.100223 97.91 342.86L97.91 342.86C99.6060649 342.617292 101.329078 343.058302 102.699977 344.086007 104.070876 345.113713 104.977359 346.643925 105.22 348.34L116.75 429.05C117.166834 431.990767 119.535195 434.268355 122.49 434.57 133.49 435.64 144.19 436.26 154.04 436.47 155.935082 436.507493 157.750729 435.709522 159.004611 434.288071 160.258492 432.86662 160.823669 430.965593 160.55 429.09L149.28 350.16C149.037426 348.465074 149.47872 346.743248 150.506638 345.373942 151.534556 344.004635 153.064739 343.100223 154.76 342.86L154.76 342.86C156.456065 342.617292 158.179078 343.058302 159.549977 344.086007 160.920876 345.113713 161.827359 346.643925 162.07 348.34L173.79 430.34C174.259923 433.697184 177.248431 436.117701 180.63 435.88 185.209395 435.578115 189.769287 435.030661 194.29 434.24 200.929621 433.028687 207.39716 431.013878 213.55 428.24 216.165405 427.05114 217.690122 424.28632 217.3 421.44L207.39 350.13C207.15655 348.432605 207.60698 346.711995 208.642191 345.346716 209.677403 343.981437 211.212589 343.083336 212.91 342.85L212.91 342.85C214.606322 342.613652 216.326996 343.061678 217.692647 344.095295 219.058298 345.128913 219.956782 346.663245 220.19 348.36L228.19 405.75C228.525641 408.244955 230.282179 410.316637 232.688657 411.055769 235.095135 411.794902 237.71173 411.066396 239.39 409.19 251.2 395.59 257 378.21 253.75 360.69z"/>
    <circle fill="#48bb78" opacity="0.5" cx="583.74" cy="264.04" r="43.93"/>
    <path fill="#48bb78" opacity="0.5" d="M496.63,250 C497.83943,251.87303 497.889724,254.267844 496.76,256.19 C469.66,302.34 376.27,302.34 342.99,302.34 C308.969259,302.34 281.39,274.760741 281.39,240.74 C281.39,206.719259 308.969259,179.14 342.99,179.14 C376.22,179.18 469.36,207.39 496.63,250 Z M352.45,275.67 C379.567181,275.67 401.55,255.133301 401.55,229.8 C401.55,204.466699 379.567181,183.93 352.45,183.93 C325.332819,183.93 303.35,204.466699 303.35,229.8 C303.35,255.133301 325.332819,275.67 352.45,275.67 Z"/>
    <ellipse fill="#48bb78" opacity="0.5" cx="377.65" cy="226.25" rx="9.69" ry="31.99"/>

    <path fill="#48bb78" d="M538.59 293.5L550.2 311.75C551.671534 314.059037 551.307297 317.085968 549.33 318.98L297.23 561C295.478868 562.68704 292.854752 563.087669 290.68 562L285.76 559.54C284.1272 558.726056 282.977563 557.185531 282.661967 555.388606 282.346371 553.591681 282.90227 551.751611 284.16 550.43L529.57 292.63C530.788584 291.346392 532.530415 290.695506 534.292154 290.86543 536.053892 291.035354 537.639212 292.007151 538.59 293.5zM322.72 307.46L322.72 307.46C324.805456 307.042194 326.489946 305.507323 327.099376 303.469608 327.708806 301.431893 327.143622 299.2242 325.63 297.73 311.53 283.85 280.1 255.98 255.1 255.94 252.175617 255.897537 249.678743 258.042618 249.28 260.94 248.489825 266.568189 249.924737 272.282724 253.28 276.87 254.638251 278.76588 254.674147 281.306504 253.37 283.24 247.93 291.47 232.28 310.54 203.9 310.54 168.72 310.54 131.09 251.89 52.99 248.66 51.2748893 248.575503 49.611261 249.259315 48.4513507 250.52555 47.2914403 251.791786 46.7557866 253.508857 46.99 255.21 50.99 284.3 74.36 398.41 196.12 398.41 264.12 398.41 310.81 323.99 318.91 310.16 319.731266 308.752727 321.12009 307.76852 322.72 307.46z"/>
    <path fill="#48bb78" d="M383.54 399.14C365.82 399.14 350.416667 395.216667 337.33 387.37 302.53 366.46 298.33 325.79 298.21 324.07 297.878629 320.516048 300.491048 317.366371 304.045 317.035 307.598952 316.703629 310.748629 319.316048 311.08 322.87 311.13 323.4 314.98 358.95 344.08 376.36 369.59 391.61 406.78 389.2 454.61 369.2 457.901617 367.819288 461.689288 369.368383 463.07 372.66 464.450712 375.951617 462.901617 379.739288 459.61 381.12 430.9 393.12 405.47 399.14 383.54 399.14zM7.47 603.860018C4.47035144 603.866983 1.86054091 601.808193 1.16898319 598.889342.477425476 595.970492 1.88608852 592.959612 4.57 591.62 84.5 551.62 147.75 434.69 148.38 433.51 149.433989 431.413206 151.542206 430.052935 153.887027 429.956738 156.231847 429.86054 158.444404 431.043549 159.666606 433.046961 160.888808 435.050372 160.92839 437.559027 159.77 439.6 147.037578 462.484718 132.726263 484.454575 116.94 505.35 81.41 552.67 45.55 585.58 10.35 603.18 9.455422 603.626109 8.46964077 603.860018 7.47 603.860018L7.47 603.860018zM205.09 508.33C200.115398 508.31996 195.644259 505.292958 193.787266 500.677945 191.930273 496.062933 193.058758 490.782748 196.64 487.33 268.11 417.93 283.51 394.8 286.53 387.33 279.73 388.62 264.42 395.56 250.32 403.97 247.25482 405.798062 243.288063 404.79518 241.46 401.73 239.631938 398.66482 240.63482 394.698063 243.7 392.87 288.7 366.04 295.7 375.25 298.07 378.28 303.2 384.97 299.12 395.18 283.5 414.69 268.62 433.28 242.9 460.39 207.04 495.26L222.75 494.05C226.275727 493.825326 229.327974 496.474597 229.601443 499.996876 229.874912 503.519154 227.268155 506.607789 223.75 506.93L206.07 508.29C205.74 508.32 205.42 508.33 205.09 508.33z"/>
    <path fill="#48bb78" d="M286.48,210.33 L284.1,67.83 C284.071202,65.9868763 283.158973,64.269725 281.64782,63.2140966 C280.136667,62.1584681 278.210478,61.8928188 276.47,62.5 L245.06,73.42 C242.595852,74.286083 239.857681,73.3793456 238.397473,71.2137233 C236.937265,69.048101 237.123245,66.1697052 238.85,64.21 L293.3,2 C294.316749,0.838394236 295.75657,0.132655938 297.297553,0.0405728545 C298.838535,-0.0515102291 300.352155,0.477741913 301.5,1.51 C320.61,18.74 337.06,60.33 340.26,68.75 C340.639219,69.7352547 341.282814,70.5968411 342.12,71.24 C367.12,90.9 404.75,162.46 413.77,180.04 C414.95603,182.353953 417.547344,183.584007 420.09,183.04 L483.38,169.48 C486.116983,168.889666 488.880532,170.360178 489.92,172.96 L490.85,175.28 C491.465653,176.819326 491.386931,178.549474 490.634034,180.026531 C489.881137,181.503589 488.527343,182.583796 486.92,182.99 L222.19,249.79 C219.175675,250.552311 216.101387,248.780387 215.25,245.79 L213.25,238.79 C212.819429,237.283755 213.022071,235.66704 213.811072,234.313658 C214.600073,232.960277 215.907117,231.987411 217.43,231.62 L282.08,216 C284.690942,215.369648 286.517645,213.015692 286.48,210.33 L286.48,210.33 Z"/>
  </g>
</svg>
