<svg xmlns="http://www.w3.org/2000/svg" viewBox="0 0 2241.5 687.24"><defs><style>.cls-1{font-size:529.68px;font-family:Barlow-Black, Barlow;font-weight:800;}.cls-1,.cls-3,.cls-4{fill:#6592e8;}.cls-2{letter-spacing:-0.02em;}.cls-3{opacity:0.5;}.cls-5{fill:#fff;}</style></defs><title>Asset 1</title><g id="Layer_2" data-name="Layer 2"><g id="Calque_1" data-name="Calque 1"><text class="cls-1" transform="translate(691.68 543.7)"><tspan class="cls-2">f</tspan><tspan x="204.99" y="0">ormiz</tspan></text><circle class="cls-3" cx="582.74" cy="264.04" r="43.93"/><path class="cls-4" d="M537.59,293.5l11.61,18.25a5.74,5.74,0,0,1-.87,7.23L296.23,561a5.74,5.74,0,0,1-6.55,1l-4.92-2.46a5.75,5.75,0,0,1-1.6-9.11l245.41-257.8A5.75,5.75,0,0,1,537.59,293.5Z"/><path class="cls-4" d="M321.72,307.46h0a5.75,5.75,0,0,0,2.91-9.73c-14.1-13.88-45.53-41.75-70.53-41.79a5.79,5.79,0,0,0-5.82,5,21.84,21.84,0,0,0,4,15.93,5.58,5.58,0,0,1,.09,6.37c-5.44,8.23-21.09,27.3-49.47,27.3-35.18,0-72.81-58.65-150.91-61.88a5.77,5.77,0,0,0-6,6.55c4,29.09,27.37,143.2,149.13,143.2,68,0,114.69-74.42,122.79-88.25A5.65,5.65,0,0,1,321.72,307.46Z"/><path class="cls-3" d="M495.63,250a5.9,5.9,0,0,1,.13,6.19c-27.1,46.15-120.49,46.15-153.77,46.15a61.6,61.6,0,0,1,0-123.2C375.22,179.18,468.36,207.39,495.63,250Z"/><path class="cls-4" d="M382.54,399.14q-26.58,0-46.21-11.77c-34.8-20.91-39-61.58-39.12-63.3a6.46,6.46,0,0,1,12.87-1.2c.05.53,3.9,36.08,33,53.49,25.51,15.25,62.7,12.84,110.53-7.16a6.46,6.46,0,0,1,5,11.92C429.9,393.12,404.47,399.14,382.54,399.14Z"/><path class="cls-4" d="M6.47,603.86a6.46,6.46,0,0,1-2.9-12.24c79.93-40,143.18-156.93,143.81-158.11a6.46,6.46,0,1,1,11.39,6.09,563.84,563.84,0,0,1-42.83,65.75C80.41,552.67,44.55,585.58,9.35,603.18A6.47,6.47,0,0,1,6.47,603.86Z"/><path class="cls-4" d="M204.09,508.33a12.21,12.21,0,0,1-8.45-21c71.47-69.4,86.87-92.53,89.89-100-6.8,1.29-22.11,8.23-36.21,16.64a6.46,6.46,0,0,1-6.62-11.1c45-26.83,52-17.62,54.37-14.59,5.13,6.69,1.05,16.9-14.57,36.41-14.88,18.59-40.6,45.7-76.46,80.57l15.71-1.21a6.46,6.46,0,0,1,1,12.88l-17.68,1.36C204.74,508.32,204.42,508.33,204.09,508.33Z"/><ellipse class="cls-5" cx="351.45" cy="229.8" rx="49.1" ry="45.87"/><ellipse class="cls-4" cx="376.65" cy="226.25" rx="9.69" ry="31.99"/><path class="cls-4" d="M285.48,210.33,283.1,67.83a5.74,5.74,0,0,0-7.63-5.33L244.06,73.42a5.74,5.74,0,0,1-6.21-9.21L292.3,2a5.77,5.77,0,0,1,8.2-.49c19.11,17.23,35.56,58.82,38.76,67.24a5.74,5.74,0,0,0,1.86,2.49c25,19.66,62.63,91.22,71.65,108.8a5.75,5.75,0,0,0,6.32,3l63.29-13.56a5.74,5.74,0,0,1,6.54,3.48l.93,2.32a5.75,5.75,0,0,1-3.93,7.71l-264.73,66.8a5.75,5.75,0,0,1-6.94-4l-2-7a5.75,5.75,0,0,1,4.18-7.17L281.08,216A5.75,5.75,0,0,0,285.48,210.33Z"/><path class="cls-3" d="M27.87,362.19c-9.1,6.74-16.62,14.32-21.73,22.85a12.28,12.28,0,0,0,3.14,16.08c7.08,5.41,15.87,10.12,25.76,14.19a6.48,6.48,0,0,0,8.9-6.86l-5.83-41.94A6.47,6.47,0,0,0,27.87,362.19Z"/><path class="cls-3" d="M252.75,360.69C246.6,327.23,210,305.92,171,313.09c-24.49,4.51-77.35,14.25-118.09,34.16a6.44,6.44,0,0,0-3.5,6.68l9.06,65.24a6.45,6.45,0,0,0,4.73,5.37c10.1,2.64,20.67,4.8,31.29,6.53a6.47,6.47,0,0,0,7.45-7.3L91.43,350.16a6.45,6.45,0,0,1,5.48-7.3h0a6.46,6.46,0,0,1,7.31,5.48l11.53,80.71a6.46,6.46,0,0,0,5.74,5.52c11,1.07,21.7,1.69,31.55,1.9a6.45,6.45,0,0,0,6.51-7.38l-11.27-78.93a6.45,6.45,0,0,1,5.48-7.3h0a6.46,6.46,0,0,1,7.31,5.48l11.72,82a6.45,6.45,0,0,0,6.84,5.54,128.26,128.26,0,0,0,13.66-1.64,83.19,83.19,0,0,0,19.26-6,6.5,6.5,0,0,0,3.75-6.8l-9.91-71.31a6.46,6.46,0,0,1,5.52-7.28h0a6.45,6.45,0,0,1,7.28,5.51l8,57.39a6.45,6.45,0,0,0,11.2,3.44C250.2,395.59,256,378.21,252.75,360.69Z"/></g></g></svg>